<svg id="svg" xmlns="http://www.w3.org/2000/svg" xmlns:xlink="http://www.w3.org/1999/xlink" width="400" height="341.0852713178295" viewBox="0, 0, 400,341.0852713178295">
  <defs>
    <linearGradient id="logoGradient" x1="0%" y1="0%" x2="100%" y2="100%">
      <stop offset="0%" style="stop-color:#CFB3ED;stop-opacity:1" />
      <stop offset="35%" style="stop-color:#B078EC;stop-opacity:1" />
      <stop offset="70%" style="stop-color:#8340D3;stop-opacity:1" />
      <stop offset="100%" style="stop-color:#4F366A;stop-opacity:1" />
    </linearGradient>
  </defs>
  <style>
    /* subtle pulsing glow using violet palette (duration ~3s, opacity 0.25->0.5) */
    #path0 {
      animation: logoGlow 3s ease-in-out infinite alternate;
      transform-origin: center;
    }
    @keyframes logoGlow {
      0% {
        filter: drop-shadow(0 0 4px rgba(176,120,236,0.25));
        transform: translateY(0px) scale(1);
      }
      100% {
        filter: drop-shadow(0 0 10px rgba(176,120,236,0.5));
        transform: translateY(-1px) scale(1.003);
      }
    }
  </style>
  <g id="svgg">
    <path id="path0" d="M166.065 20.225 C 58.540 36.951,4.232 159.890,64.202 250.816 C 129.267 349.466,276.469 339.030,325.502 232.291 C 375.344 123.791,283.720 1.923,166.065 20.225 M211.625 40.935 C 312.535 58.781,353.514 183.416,282.974 257.937 C 202.994 342.431,61.234 286.726,60.569 170.543 C 60.093 87.497,130.981 26.674,211.625 40.935 M162.274 56.274 C 125.732 63.912,96.614 92.099,85.235 130.852 C 54.702 234.838,207.529 318.722,282.252 238.992 C 317.605 201.270,316.986 138.952,281.120 125.120 C 266.514 119.488,259.934 118.281,254.393 120.220 C 251.764 121.140,241.473 124.264,231.525 127.161 C 210.946 133.155,210.455 133.463,210.455 140.393 C 210.455 149.272,213.485 155.331,217.420 154.322 C 225.611 152.222,235.816 153.352,242.817 157.135 C 254.880 163.653,254.204 165.655,239.742 166.236 C 228.040 166.706,227.854 166.912,233.850 172.769 C 241.203 179.952,247.645 182.304,261.240 182.770 L 272.868 183.169 272.868 188.577 C 272.868 249.844,176.894 269.657,150.424 213.854 C 140.503 192.939,143.895 187.640,166.974 187.995 C 183.011 188.242,184.301 187.940,189.922 182.619 C 195.473 177.365,194.154 176.050,180.518 173.243 C 167.230 170.508,169.662 167.759,188.456 164.274 C 202.373 161.694,202.817 161.285,199.335 154.265 C 196.564 148.677,194.301 147.316,184.247 145.185 C 151.262 138.196,124.693 153.995,118.402 184.341 C 116.215 194.888,115.797 194.889,112.136 184.343 C 103.049 158.176,109.502 130.251,129.180 110.579 C 141.353 98.410,159.173 89.712,159.173 95.938 C 159.173 106.853,164.417 114.771,173.495 117.562 C 183.806 120.732,226.410 119.430,226.343 115.947 C 226.336 115.561,222.724 113.731,218.317 111.880 C 192.037 100.841,190.805 96.422,213.953 96.233 C 229.199 96.108,232.516 97.048,237.258 102.835 C 242.921 109.745,248.788 103.957,249.877 90.387 C 250.604 81.331,248.165 78.916,233.821 74.489 C 224.944 71.750,222.290 70.386,216.329 65.496 C 203.514 54.985,184.206 51.691,162.274 56.274 M192.299 69.794 C 196.266 71.845,196.424 75.734,192.641 78.212 C 189.292 80.407,183.563 77.911,180.910 73.101 C 178.293 68.355,185.481 66.268,192.299 69.794 M270.847 138.760 C 275.585 141.465,275.893 142.356,272.394 143.234 C 270.996 143.585,269.311 144.524,268.650 145.321 C 264.948 149.781,254.825 142.412,257.875 137.477 C 259.036 135.600,266.628 136.351,270.847 138.760 M121.272 251.762 C 118.966 257.772,148.562 277.790,168.067 283.414 C 183.080 287.742,218.272 286.372,219.904 281.395 C 220.210 280.460,218.643 280.103,214.219 280.103 C 183.142 280.103,151.910 270.832,128.388 254.624 C 123.095 250.977,121.777 250.447,121.272 251.762 " stroke="none" fill="url(#logoGradient)" fill-rule="evenodd"></path>
  </g>
</svg>